<?xml version="1.0" encoding="UTF-8"?>
<!DOCTYPE svg PUBLIC "-//W3C//DTD SVG 1.1//EN" "http://www.w3.org/Graphics/SVG/1.1/DTD/svg11.dtd">
<svg xmlns="http://www.w3.org/2000/svg" xmlns:xlink="http://www.w3.org/1999/xlink" version="1.1" width="1806px" height="1806px" viewBox="-0.5 -0.5 1806 1806"><defs/><g><ellipse cx="900" cy="901" rx="885" ry="885" fill="#647687" stroke="#314354" stroke-width="36" pointer-events="all"/><path d="M 1288.14 491.49 L 1411.81 860.53" fill="none" stroke="#314354" stroke-width="32" stroke-miterlimit="10" pointer-events="stroke"/><ellipse cx="1260" cy="406" rx="90" ry="90" fill="#314354" stroke="#647687" stroke-width="36" pointer-events="all"/><path d="M 489.32 488.6 L 790.34 242.99" fill="none" stroke="#314354" stroke-width="32" stroke-miterlimit="10" pointer-events="stroke"/><ellipse cx="420" cy="546" rx="90" ry="90" fill="#314354" stroke="#647687" stroke-width="36" pointer-events="all"/><path d="M 1010.87 558.12 L 1182.93 452.48" fill="none" stroke="#314354" stroke-width="32" stroke-miterlimit="10" pointer-events="stroke"/><path d="M 771.67 605.24 L 508.78 560.8" fill="none" stroke="#314354" stroke-width="32" stroke-miterlimit="10" pointer-events="stroke"/><ellipse cx="900" cy="626" rx="130" ry="130" fill="#314354" stroke="#647687" stroke-width="36" pointer-events="all"/><path d="M 939.33 228.5 L 1180.9 363.06" fill="none" stroke="#314354" stroke-width="32" stroke-miterlimit="10" pointer-events="stroke"/><ellipse cx="860" cy="186" rx="90" ry="90" fill="#314354" stroke="#647687" stroke-width="36" pointer-events="all"/><path d="M 594.07 964.67 L 812.82 722.43" fill="none" stroke="#314354" stroke-width="32" stroke-miterlimit="10" pointer-events="stroke"/><path d="M 629.42 1034.68 L 1350.5 955.45" fill="none" stroke="#314354" stroke-width="32" stroke-miterlimit="10" pointer-events="stroke"/><path d="M 499 938.02 L 437.26 634.33" fill="none" stroke="#314354" stroke-width="32" stroke-miterlimit="10" pointer-events="stroke"/><path d="M 560.2 943.61 L 827.06 269.75" fill="none" stroke="#314354" stroke-width="32" stroke-miterlimit="10" pointer-events="stroke"/><ellipse cx="520" cy="1046" rx="110" ry="110" fill="#314354" stroke="#647687" stroke-width="36" pointer-events="all"/><path d="M 1362.64 900 L 1012.2 691.65" fill="none" stroke="#314354" stroke-width="32" stroke-miterlimit="10" pointer-events="stroke"/><path d="M 1385.62 874.29 L 914.69 257.48" fill="none" stroke="#314354" stroke-width="32" stroke-miterlimit="10" pointer-events="stroke"/><ellipse cx="1440" cy="946" rx="90" ry="90" fill="#314354" stroke="#647687" stroke-width="36" pointer-events="all"/><rect x="684" y="1160" width="480" height="480" rx="28.8" ry="28.8" fill="#556473" stroke="rgb(0, 0, 0)" stroke-width="0.1" pointer-events="all"/><rect x="680" y="1150" width="490" height="490" fill="none" stroke="none" pointer-events="all"/><path d="M 1052.01 1290.46 C 1049.02 1290.51 1046.16 1291.74 1044.07 1293.89 C 1041.99 1296.04 1040.84 1298.93 1040.89 1301.93 L 1040.89 1346.74 C 1040.89 1350.77 1043.05 1354.5 1046.54 1356.51 C 1050.04 1358.53 1054.35 1358.53 1057.85 1356.51 C 1061.34 1354.5 1063.5 1350.77 1063.5 1346.74 L 1063.5 1301.93 C 1063.55 1298.87 1062.35 1295.93 1060.19 1293.76 C 1058.03 1291.6 1055.08 1290.41 1052.01 1290.46 Z M 992.21 1290.46 C 989.2 1290.5 986.34 1291.73 984.25 1293.88 C 982.15 1296.03 981.01 1298.93 981.05 1301.93 L 981.05 1346.74 C 981.05 1350.77 983.21 1354.5 986.71 1356.51 C 990.2 1358.53 994.51 1358.53 998.01 1356.51 C 1001.51 1354.5 1003.66 1350.77 1003.66 1346.74 L 1003.66 1301.93 C 1003.71 1298.88 1002.52 1295.94 1000.36 1293.78 C 998.21 1291.61 995.26 1290.42 992.21 1290.46 Z M 932.37 1290.46 C 929.37 1290.51 926.52 1291.74 924.43 1293.89 C 922.34 1296.04 921.2 1298.93 921.25 1301.93 L 921.25 1346.74 C 921.25 1352.97 926.31 1358.03 932.55 1358.03 C 938.79 1358.03 943.86 1352.97 943.86 1346.74 L 943.86 1301.93 C 943.9 1298.87 942.71 1295.93 940.55 1293.76 C 938.38 1291.6 935.43 1290.41 932.37 1290.46 Z M 872.53 1290.46 C 869.54 1290.51 866.68 1291.74 864.59 1293.89 C 862.51 1296.04 861.36 1298.93 861.41 1301.93 L 861.41 1346.74 C 861.41 1352.97 866.47 1358.03 872.71 1358.03 C 878.96 1358.03 884.02 1352.97 884.02 1346.74 L 884.02 1301.93 C 884.07 1298.87 882.87 1295.93 880.71 1293.76 C 878.54 1291.6 875.59 1290.41 872.53 1290.46 Z M 812.73 1290.46 C 809.72 1290.5 806.86 1291.73 804.77 1293.88 C 802.67 1296.03 801.52 1298.93 801.57 1301.93 L 801.57 1346.74 C 801.57 1350.77 803.73 1354.5 807.23 1356.51 C 810.72 1358.53 815.03 1358.53 818.53 1356.51 C 822.03 1354.5 824.18 1350.77 824.18 1346.74 L 824.18 1301.93 C 824.23 1298.88 823.04 1295.94 820.88 1293.78 C 818.72 1291.61 815.78 1290.42 812.73 1290.46 Z M 746.14 1248.02 L 746.14 1468.69 L 758.2 1468.69 L 807.57 1468.69 L 807.57 1509.71 L 847.57 1509.71 L 847.57 1556.63 L 1005.98 1556.63 L 1005.98 1509.71 L 1049.24 1509.71 L 1049.24 1468.69 L 1108.72 1468.69 L 1108.72 1248.02 Z M 770.25 1272.1 L 1084.6 1272.1 L 1084.6 1444.61 L 1025.13 1444.61 L 1025.13 1485.64 L 981.87 1485.64 L 981.87 1532.56 L 871.69 1532.56 L 871.69 1485.64 L 831.69 1485.64 L 831.69 1444.61 L 770.25 1444.61 Z M 719.4 1150 C 697.79 1150 680 1167.76 680 1189.34 L 680 1600.66 C 680 1622.27 697.79 1640 719.4 1640 L 1130.6 1640 C 1152.21 1640 1170 1622.27 1170 1600.66 L 1170 1189.34 C 1170 1167.76 1152.21 1150 1130.6 1150 Z M 719.4 1174.08 L 1130.6 1174.08 C 1139.28 1174.08 1145.88 1180.67 1145.88 1189.34 L 1145.88 1600.66 C 1145.88 1609.33 1139.28 1615.92 1130.6 1615.92 L 719.4 1615.92 C 710.72 1615.92 704.12 1609.33 704.12 1600.66 L 704.12 1189.34 C 704.12 1180.67 710.72 1174.08 719.4 1174.08 Z" fill="#314354" stroke="none" pointer-events="all"/></g></svg>